<mxfile host="app.diagrams.net" modified="2024-04-14T20:47:42.321Z" agent="Mozilla/5.0 (Windows NT 10.0; Win64; x64; rv:124.0) Gecko/20100101 Firefox/124.0" etag="fp11BMQmwpVuDn7itxFB" version="24.2.5" type="google">
  <diagram id="R2lEEEUBdFMjLlhIrx00" name="Page-1">
    <mxGraphModel grid="1" page="1" gridSize="10" guides="1" tooltips="1" connect="1" arrows="1" fold="1" pageScale="1" pageWidth="850" pageHeight="1100" math="0" shadow="0" extFonts="Permanent Marker^https://fonts.googleapis.com/css?family=Permanent+Marker">
      <root>
        <mxCell id="0" />
        <mxCell id="1" parent="0" />
        <mxCell id="WzUALtF7ErbJbNnm_jxI-42" style="rounded=0;orthogonalLoop=1;jettySize=auto;html=1;endArrow=ERmany;endFill=0;endSize=30;" edge="1" parent="1" source="WzUALtF7ErbJbNnm_jxI-1" target="WzUALtF7ErbJbNnm_jxI-31">
          <mxGeometry relative="1" as="geometry" />
        </mxCell>
        <mxCell id="UDol2EaKQShBg1yIw4Ao-1" style="rounded=0;orthogonalLoop=1;jettySize=auto;html=1;endArrow=ERmany;endFill=0;startArrow=none;startFill=0;targetPerimeterSpacing=0;endSize=30;entryX=1;entryY=0.5;entryDx=0;entryDy=0;" edge="1" parent="1" source="WzUALtF7ErbJbNnm_jxI-1" target="WzUALtF7ErbJbNnm_jxI-28">
          <mxGeometry relative="1" as="geometry" />
        </mxCell>
        <mxCell id="WzUALtF7ErbJbNnm_jxI-1" value="Tiene" style="rhombus;whiteSpace=wrap;html=1;" vertex="1" parent="1">
          <mxGeometry x="490" y="30" width="80" height="80" as="geometry" />
        </mxCell>
        <mxCell id="WzUALtF7ErbJbNnm_jxI-11" style="rounded=0;orthogonalLoop=1;jettySize=auto;html=1;endArrow=none;endFill=0;" edge="1" parent="1" source="WzUALtF7ErbJbNnm_jxI-5" target="WzUALtF7ErbJbNnm_jxI-6">
          <mxGeometry relative="1" as="geometry" />
        </mxCell>
        <mxCell id="WzUALtF7ErbJbNnm_jxI-15" style="rounded=0;orthogonalLoop=1;jettySize=auto;html=1;endArrow=none;endFill=0;" edge="1" parent="1" source="WzUALtF7ErbJbNnm_jxI-5" target="WzUALtF7ErbJbNnm_jxI-7">
          <mxGeometry relative="1" as="geometry" />
        </mxCell>
        <mxCell id="WzUALtF7ErbJbNnm_jxI-16" style="rounded=0;orthogonalLoop=1;jettySize=auto;html=1;entryX=0.5;entryY=0;entryDx=0;entryDy=0;endArrow=none;endFill=0;" edge="1" parent="1" source="WzUALtF7ErbJbNnm_jxI-5" target="WzUALtF7ErbJbNnm_jxI-8">
          <mxGeometry relative="1" as="geometry" />
        </mxCell>
        <mxCell id="WzUALtF7ErbJbNnm_jxI-17" style="rounded=0;orthogonalLoop=1;jettySize=auto;html=1;endArrow=none;endFill=0;" edge="1" parent="1" source="WzUALtF7ErbJbNnm_jxI-5" target="WzUALtF7ErbJbNnm_jxI-9">
          <mxGeometry relative="1" as="geometry" />
        </mxCell>
        <mxCell id="WzUALtF7ErbJbNnm_jxI-19" style="rounded=0;orthogonalLoop=1;jettySize=auto;html=1;endArrow=none;endFill=0;" edge="1" parent="1" source="WzUALtF7ErbJbNnm_jxI-5" target="WzUALtF7ErbJbNnm_jxI-18">
          <mxGeometry relative="1" as="geometry" />
        </mxCell>
        <mxCell id="WzUALtF7ErbJbNnm_jxI-5" value="Habitación" style="rounded=0;whiteSpace=wrap;html=1;" vertex="1" parent="1">
          <mxGeometry x="460" y="660" width="120" height="60" as="geometry" />
        </mxCell>
        <mxCell id="WzUALtF7ErbJbNnm_jxI-6" value="Tipo" style="ellipse;whiteSpace=wrap;html=1;" vertex="1" parent="1">
          <mxGeometry x="181" y="890" width="120" height="80" as="geometry" />
        </mxCell>
        <mxCell id="WzUALtF7ErbJbNnm_jxI-7" value="Precio" style="ellipse;whiteSpace=wrap;html=1;" vertex="1" parent="1">
          <mxGeometry x="310" y="900" width="120" height="80" as="geometry" />
        </mxCell>
        <mxCell id="WzUALtF7ErbJbNnm_jxI-8" value="Estado(Libre,reservado o ocupado)" style="ellipse;whiteSpace=wrap;html=1;" vertex="1" parent="1">
          <mxGeometry x="435" y="890" width="120" height="80" as="geometry" />
        </mxCell>
        <mxCell id="WzUALtF7ErbJbNnm_jxI-9" value="Caracteristicas" style="ellipse;whiteSpace=wrap;html=1;" vertex="1" parent="1">
          <mxGeometry x="520" y="800" width="120" height="80" as="geometry" />
        </mxCell>
        <mxCell id="WzUALtF7ErbJbNnm_jxI-18" value="&lt;div&gt;N° Habitacion&lt;/div&gt;" style="ellipse;whiteSpace=wrap;html=1;fillColor=#dae8fc;strokeColor=#6c8ebf;" vertex="1" parent="1">
          <mxGeometry x="90" y="830" width="120" height="80" as="geometry" />
        </mxCell>
        <mxCell id="WzUALtF7ErbJbNnm_jxI-24" style="rounded=0;orthogonalLoop=1;jettySize=auto;html=1;endArrow=none;endFill=0;" edge="1" parent="1" source="WzUALtF7ErbJbNnm_jxI-20" target="WzUALtF7ErbJbNnm_jxI-22">
          <mxGeometry relative="1" as="geometry" />
        </mxCell>
        <mxCell id="WzUALtF7ErbJbNnm_jxI-25" style="rounded=0;orthogonalLoop=1;jettySize=auto;html=1;entryX=1;entryY=0.5;entryDx=0;entryDy=0;endArrow=none;endFill=0;" edge="1" parent="1" source="WzUALtF7ErbJbNnm_jxI-20" target="WzUALtF7ErbJbNnm_jxI-21">
          <mxGeometry relative="1" as="geometry" />
        </mxCell>
        <mxCell id="UDol2EaKQShBg1yIw4Ao-5" style="rounded=0;orthogonalLoop=1;jettySize=auto;html=1;entryX=0;entryY=0;entryDx=0;entryDy=0;endArrow=none;endFill=0;" edge="1" parent="1" source="WzUALtF7ErbJbNnm_jxI-20" target="WzUALtF7ErbJbNnm_jxI-23">
          <mxGeometry relative="1" as="geometry" />
        </mxCell>
        <mxCell id="WzUALtF7ErbJbNnm_jxI-20" value="Cliente" style="rounded=0;whiteSpace=wrap;html=1;" vertex="1" parent="1">
          <mxGeometry x="60" y="420" width="120" height="60" as="geometry" />
        </mxCell>
        <mxCell id="WzUALtF7ErbJbNnm_jxI-21" value="N° de identificación" style="ellipse;whiteSpace=wrap;html=1;" vertex="1" parent="1">
          <mxGeometry x="-89" y="380" width="120" height="80" as="geometry" />
        </mxCell>
        <mxCell id="WzUALtF7ErbJbNnm_jxI-22" value="Nombre" style="ellipse;whiteSpace=wrap;html=1;" vertex="1" parent="1">
          <mxGeometry x="-100" y="460" width="120" height="80" as="geometry" />
        </mxCell>
        <mxCell id="WzUALtF7ErbJbNnm_jxI-23" value="d" style="ellipse;whiteSpace=wrap;html=1;aspect=fixed;" vertex="1" parent="1">
          <mxGeometry x="150" y="520" width="30" height="30" as="geometry" />
        </mxCell>
        <mxCell id="WzUALtF7ErbJbNnm_jxI-40" style="rounded=0;orthogonalLoop=1;jettySize=auto;html=1;endArrow=none;endFill=0;" edge="1" parent="1" source="WzUALtF7ErbJbNnm_jxI-28" target="WzUALtF7ErbJbNnm_jxI-29">
          <mxGeometry relative="1" as="geometry" />
        </mxCell>
        <mxCell id="UDol2EaKQShBg1yIw4Ao-3" style="rounded=0;orthogonalLoop=1;jettySize=auto;html=1;endArrow=none;endFill=0;" edge="1" parent="1" source="WzUALtF7ErbJbNnm_jxI-28" target="UDol2EaKQShBg1yIw4Ao-2">
          <mxGeometry relative="1" as="geometry" />
        </mxCell>
        <mxCell id="WzUALtF7ErbJbNnm_jxI-28" value="Factura" style="rounded=0;whiteSpace=wrap;html=1;" vertex="1" parent="1">
          <mxGeometry x="150" y="170" width="120" height="60" as="geometry" />
        </mxCell>
        <mxCell id="WzUALtF7ErbJbNnm_jxI-29" value="N° dias hospedados" style="ellipse;whiteSpace=wrap;html=1;" vertex="1" parent="1">
          <mxGeometry x="180" y="40" width="120" height="80" as="geometry" />
        </mxCell>
        <mxCell id="WzUALtF7ErbJbNnm_jxI-37" style="rounded=0;orthogonalLoop=1;jettySize=auto;html=1;endArrow=none;endFill=0;" edge="1" parent="1" source="WzUALtF7ErbJbNnm_jxI-31" target="WzUALtF7ErbJbNnm_jxI-32">
          <mxGeometry relative="1" as="geometry" />
        </mxCell>
        <mxCell id="WzUALtF7ErbJbNnm_jxI-39" style="rounded=0;orthogonalLoop=1;jettySize=auto;html=1;endArrow=none;endFill=0;" edge="1" parent="1" source="WzUALtF7ErbJbNnm_jxI-31" target="WzUALtF7ErbJbNnm_jxI-35">
          <mxGeometry relative="1" as="geometry" />
        </mxCell>
        <mxCell id="WzUALtF7ErbJbNnm_jxI-31" value="&lt;div&gt;Servicio&lt;/div&gt;" style="rounded=0;whiteSpace=wrap;html=1;" vertex="1" parent="1">
          <mxGeometry x="510" y="330" width="120" height="60" as="geometry" />
        </mxCell>
        <mxCell id="WzUALtF7ErbJbNnm_jxI-32" value="Tipo" style="ellipse;whiteSpace=wrap;html=1;" vertex="1" parent="1">
          <mxGeometry x="700" y="240" width="120" height="80" as="geometry" />
        </mxCell>
        <mxCell id="WzUALtF7ErbJbNnm_jxI-33" value="N° servicio" style="ellipse;whiteSpace=wrap;html=1;" vertex="1" parent="1">
          <mxGeometry x="720" y="130" width="120" height="80" as="geometry" />
        </mxCell>
        <mxCell id="WzUALtF7ErbJbNnm_jxI-34" value="Fecha y hora" style="ellipse;whiteSpace=wrap;html=1;" vertex="1" parent="1">
          <mxGeometry x="710" y="340" width="120" height="80" as="geometry" />
        </mxCell>
        <mxCell id="WzUALtF7ErbJbNnm_jxI-35" value="Precio / costo" style="ellipse;whiteSpace=wrap;html=1;" vertex="1" parent="1">
          <mxGeometry x="700" y="440" width="120" height="80" as="geometry" />
        </mxCell>
        <mxCell id="WzUALtF7ErbJbNnm_jxI-36" style="rounded=0;orthogonalLoop=1;jettySize=auto;html=1;entryX=0.146;entryY=0.936;entryDx=0;entryDy=0;entryPerimeter=0;endArrow=none;endFill=0;" edge="1" parent="1" source="WzUALtF7ErbJbNnm_jxI-31" target="WzUALtF7ErbJbNnm_jxI-33">
          <mxGeometry relative="1" as="geometry" />
        </mxCell>
        <mxCell id="WzUALtF7ErbJbNnm_jxI-38" style="rounded=0;orthogonalLoop=1;jettySize=auto;html=1;entryX=0.019;entryY=0.593;entryDx=0;entryDy=0;entryPerimeter=0;endArrow=none;endFill=0;" edge="1" parent="1" source="WzUALtF7ErbJbNnm_jxI-31" target="WzUALtF7ErbJbNnm_jxI-34">
          <mxGeometry relative="1" as="geometry" />
        </mxCell>
        <mxCell id="UDol2EaKQShBg1yIw4Ao-2" value="N° Factura" style="ellipse;whiteSpace=wrap;html=1;" vertex="1" parent="1">
          <mxGeometry x="40" y="50" width="120" height="80" as="geometry" />
        </mxCell>
        <mxCell id="UDol2EaKQShBg1yIw4Ao-14" style="rounded=0;orthogonalLoop=1;jettySize=auto;html=1;endArrow=halfCircle;endFill=0;" edge="1" parent="1" source="UDol2EaKQShBg1yIw4Ao-7" target="WzUALtF7ErbJbNnm_jxI-23">
          <mxGeometry relative="1" as="geometry" />
        </mxCell>
        <mxCell id="UDol2EaKQShBg1yIw4Ao-7" value="Habitual" style="rounded=0;whiteSpace=wrap;html=1;" vertex="1" parent="1">
          <mxGeometry x="10" y="560" width="120" height="60" as="geometry" />
        </mxCell>
        <mxCell id="UDol2EaKQShBg1yIw4Ao-13" style="rounded=0;orthogonalLoop=1;jettySize=auto;html=1;endArrow=halfCircle;endFill=0;" edge="1" parent="1" source="UDol2EaKQShBg1yIw4Ao-9" target="WzUALtF7ErbJbNnm_jxI-23">
          <mxGeometry relative="1" as="geometry" />
        </mxCell>
        <mxCell id="UDol2EaKQShBg1yIw4Ao-9" value="Esporádicos" style="rounded=0;whiteSpace=wrap;html=1;" vertex="1" parent="1">
          <mxGeometry x="110" y="660" width="120" height="60" as="geometry" />
        </mxCell>
        <mxCell id="UDol2EaKQShBg1yIw4Ao-17" style="rounded=0;orthogonalLoop=1;jettySize=auto;html=1;endArrow=none;endFill=0;" edge="1" parent="1" source="UDol2EaKQShBg1yIw4Ao-16" target="UDol2EaKQShBg1yIw4Ao-7">
          <mxGeometry relative="1" as="geometry" />
        </mxCell>
        <mxCell id="UDol2EaKQShBg1yIw4Ao-16" value="Tipo" style="ellipse;whiteSpace=wrap;html=1;" vertex="1" parent="1">
          <mxGeometry x="-50" y="690" width="120" height="80" as="geometry" />
        </mxCell>
        <mxCell id="UDol2EaKQShBg1yIw4Ao-19" style="rounded=0;orthogonalLoop=1;jettySize=auto;html=1;endArrow=none;endFill=0;" edge="1" parent="1" source="UDol2EaKQShBg1yIw4Ao-18" target="UDol2EaKQShBg1yIw4Ao-7">
          <mxGeometry relative="1" as="geometry" />
        </mxCell>
        <mxCell id="UDol2EaKQShBg1yIw4Ao-18" value="Descuento" style="ellipse;whiteSpace=wrap;html=1;" vertex="1" parent="1">
          <mxGeometry x="-130" y="600" width="120" height="80" as="geometry" />
        </mxCell>
        <mxCell id="UDol2EaKQShBg1yIw4Ao-24" style="rounded=0;orthogonalLoop=1;jettySize=auto;html=1;endArrow=none;endFill=0;" edge="1" parent="1" source="UDol2EaKQShBg1yIw4Ao-21" target="UDol2EaKQShBg1yIw4Ao-23">
          <mxGeometry relative="1" as="geometry" />
        </mxCell>
        <mxCell id="UDol2EaKQShBg1yIw4Ao-28" style="rounded=0;orthogonalLoop=1;jettySize=auto;html=1;endArrow=none;endFill=0;" edge="1" parent="1" source="UDol2EaKQShBg1yIw4Ao-21" target="UDol2EaKQShBg1yIw4Ao-27">
          <mxGeometry relative="1" as="geometry" />
        </mxCell>
        <mxCell id="UDol2EaKQShBg1yIw4Ao-32" style="rounded=0;orthogonalLoop=1;jettySize=auto;html=1;endArrow=none;endFill=0;" edge="1" parent="1" source="UDol2EaKQShBg1yIw4Ao-21" target="UDol2EaKQShBg1yIw4Ao-31">
          <mxGeometry relative="1" as="geometry" />
        </mxCell>
        <mxCell id="UDol2EaKQShBg1yIw4Ao-33" style="rounded=0;orthogonalLoop=1;jettySize=auto;html=1;endArrow=none;endFill=0;" edge="1" parent="1" source="UDol2EaKQShBg1yIw4Ao-21" target="UDol2EaKQShBg1yIw4Ao-30">
          <mxGeometry relative="1" as="geometry" />
        </mxCell>
        <mxCell id="UDol2EaKQShBg1yIw4Ao-21" value="Reserva" style="rounded=0;whiteSpace=wrap;html=1;" vertex="1" parent="1">
          <mxGeometry x="365" y="400" width="120" height="60" as="geometry" />
        </mxCell>
        <mxCell id="UDol2EaKQShBg1yIw4Ao-26" style="rounded=0;orthogonalLoop=1;jettySize=auto;html=1;entryX=1;entryY=0.5;entryDx=0;entryDy=0;endArrow=none;endFill=0;" edge="1" parent="1" source="UDol2EaKQShBg1yIw4Ao-23" target="WzUALtF7ErbJbNnm_jxI-20">
          <mxGeometry relative="1" as="geometry" />
        </mxCell>
        <mxCell id="UDol2EaKQShBg1yIw4Ao-23" value="Tiene" style="rhombus;whiteSpace=wrap;html=1;" vertex="1" parent="1">
          <mxGeometry x="240" y="380" width="80" height="80" as="geometry" />
        </mxCell>
        <mxCell id="UDol2EaKQShBg1yIw4Ao-29" style="rounded=0;orthogonalLoop=1;jettySize=auto;html=1;endArrow=none;endFill=0;" edge="1" parent="1" source="UDol2EaKQShBg1yIw4Ao-27" target="WzUALtF7ErbJbNnm_jxI-5">
          <mxGeometry relative="1" as="geometry" />
        </mxCell>
        <mxCell id="UDol2EaKQShBg1yIw4Ao-27" value="Tiene" style="rhombus;whiteSpace=wrap;html=1;" vertex="1" parent="1">
          <mxGeometry x="355" y="550" width="80" height="80" as="geometry" />
        </mxCell>
        <mxCell id="UDol2EaKQShBg1yIw4Ao-30" value="Fecha Entrada" style="ellipse;whiteSpace=wrap;html=1;" vertex="1" parent="1">
          <mxGeometry x="365" y="270" width="120" height="80" as="geometry" />
        </mxCell>
        <mxCell id="UDol2EaKQShBg1yIw4Ao-31" value="N° dias estadia" style="ellipse;whiteSpace=wrap;html=1;" vertex="1" parent="1">
          <mxGeometry x="250" y="290" width="120" height="80" as="geometry" />
        </mxCell>
      </root>
    </mxGraphModel>
  </diagram>
</mxfile>
